<svg width="256" height="256" viewBox="0 0 256 256" fill="none" xmlns="http://www.w3.org/2000/svg">
<path fill-rule="evenodd" clip-rule="evenodd" d="M127.667 138.5C127.667 123.681 139.681 111.667 154.5 111.667C169.319 111.667 181.333 123.681 181.333 138.5C181.333 153.319 169.319 165.333 154.5 165.333C139.681 165.333 127.667 153.319 127.667 138.5Z" fill="#1ABCFE"/>
<path fill-rule="evenodd" clip-rule="evenodd" d="M74 192.167C74 177.347 86.0137 165.333 100.833 165.333H127.667V192.167C127.667 206.986 115.653 219 100.833 219C86.0137 219 74 206.986 74 192.167Z" fill="#0ACF83"/>
<path fill-rule="evenodd" clip-rule="evenodd" d="M127.667 58V111.667H154.5C169.319 111.667 181.333 99.6527 181.333 84.8333C181.333 70.0137 169.319 58 154.5 58H127.667Z" fill="#FF7262"/>
<path fill-rule="evenodd" clip-rule="evenodd" d="M74 84.8333C74 99.6527 86.0137 111.667 100.833 111.667H127.667V58H100.833C86.0137 58 74 70.0137 74 84.8333Z" fill="#F24E1E"/>
<path fill-rule="evenodd" clip-rule="evenodd" d="M74 138.5C74 153.319 86.0137 165.333 100.833 165.333H127.667V111.667H100.833C86.0137 111.667 74 123.681 74 138.5Z" fill="#A259FF"/>
</svg>
