<svg width="256" height="256" viewBox="0 0 256 256" fill="none" xmlns="http://www.w3.org/2000/svg">
<g clip-path="url(#clip0_367_118)">
<mask id="mask0_367_118" style="mask-type:alpha" maskUnits="userSpaceOnUse" x="0" y="0" width="253" height="253">
<path d="M126.5 253C196.364 253 253 196.364 253 126.5C253 56.636 196.364 0 126.5 0C56.636 0 0 56.636 0 126.5C0 196.364 56.636 253 126.5 253Z" fill="black"/>
</mask>
<g mask="url(#mask0_367_118)">
<path d="M191.251 64.5H170.251V190.5H191.251V64.5Z" fill="url(#paint0_linear_367_118)"/>
</g>
<path d="M230.639 245.66L89.999 64.5H63.5005V190.447H84.6993V91.4213L213.999 258.479C219.833 254.575 225.391 250.289 230.639 245.66Z" fill="url(#paint1_linear_367_118)"/>
</g>
<defs>
<linearGradient id="paint0_linear_367_118" x1="180.751" y1="64.5" x2="180.399" y2="157.031" gradientUnits="userSpaceOnUse">
<stop stop-color="white"/>
<stop offset="1" stop-color="white" stop-opacity="0"/>
</linearGradient>
<linearGradient id="paint1_linear_367_118" x1="159.75" y1="173.875" x2="221.875" y2="250.875" gradientUnits="userSpaceOnUse">
<stop stop-color="white"/>
<stop offset="1" stop-color="white" stop-opacity="0"/>
</linearGradient>
<clipPath id="clip0_367_118">
<rect width="256" height="256" fill="white"/>
</clipPath>
</defs>
</svg>
