<svg width="256" height="256" viewBox="0 0 256 256" fill="none" xmlns="http://www.w3.org/2000/svg">
<path d="M142.234 127.367C142.234 119.478 135.638 113.082 127.5 113.082C119.363 113.082 112.766 119.478 112.766 127.367C112.766 135.258 119.363 141.654 127.5 141.654C135.638 141.654 142.234 135.258 142.234 127.367Z" fill="#53C1DE"/>
<path fill-rule="evenodd" clip-rule="evenodd" d="M175.352 100.845C178.464 88.5863 182.375 65.8531 168.587 58.1459C154.864 50.4722 137.006 65.1764 127.576 74.0025C118.174 65.2643 99.8146 50.623 86.039 58.3548C72.3213 66.0542 76.5515 88.4104 79.7319 100.746C66.9357 104.27 45 111.86 45 127.367C45 142.831 66.9129 151.088 79.6334 154.609C76.4412 167.013 72.4228 189.05 86.158 196.732C99.9851 204.463 118.288 190.17 127.805 181.247C137.295 190.125 154.981 204.512 168.707 196.808C182.476 189.08 178.89 166.651 175.709 154.244C188.04 150.715 210 142.638 210 127.367C210 112.009 187.947 104.358 175.352 100.845ZM173.789 147.668C171.701 141.259 168.882 134.443 165.434 127.402C168.725 120.527 171.435 113.798 173.465 107.43C182.697 110.025 202.952 115.957 202.952 127.367C202.952 138.885 183.515 144.873 173.789 147.668ZM165.175 190.893C154.934 196.64 139.722 182.883 132.713 176.345C137.363 171.414 142.009 165.682 146.544 159.317C154.521 158.631 162.057 157.509 168.891 155.977C171.129 164.754 175.461 185.12 165.175 190.893ZM89.6799 190.811C79.4379 185.085 84.1192 165.42 86.4676 156.283C93.2259 157.733 100.707 158.776 108.703 159.404C113.268 165.633 118.049 171.358 122.867 176.371C116.914 181.954 99.9698 196.564 89.6799 190.811ZM52.0482 127.367C52.0482 115.807 72.1814 109.918 81.6247 107.329C83.6898 113.841 86.3982 120.649 89.6668 127.534C86.3559 134.521 83.6087 141.438 81.5247 148.026C72.5203 145.527 52.0482 138.935 52.0482 127.367ZM89.5703 64.2695C99.8542 58.4979 115.811 72.5541 122.637 78.8807C117.844 83.8715 113.107 89.5533 108.582 95.7457C100.822 96.4431 93.3931 97.5629 86.564 99.0633C84.0019 89.1139 79.2976 70.0348 89.5703 64.2695ZM151.586 103.174C156.851 103.818 161.895 104.675 166.631 105.723C165.209 110.142 163.437 114.763 161.35 119.499C158.324 113.933 155.076 108.479 151.586 103.174ZM127.579 83.7645C130.83 87.1793 134.086 90.9926 137.289 95.1297C130.792 94.8316 124.284 94.8305 117.787 95.1253C120.993 91.0266 124.277 87.219 127.579 83.7645ZM93.7107 119.494C91.6581 114.774 89.9019 110.133 88.4677 105.651C93.1755 104.63 98.196 103.795 103.427 103.161C99.9263 108.455 96.684 113.907 93.7107 119.494ZM103.577 152.061C98.1735 151.477 93.0769 150.684 88.3706 149.691C89.8274 145.13 91.6223 140.389 93.7188 135.567C96.733 141.213 100.025 146.718 103.577 152.061ZM127.774 171.453C124.433 167.958 121.101 164.092 117.846 159.934C124.38 160.183 130.927 160.183 137.461 159.901C134.247 164.134 131.003 168.006 127.774 171.453ZM161.417 135.322C163.622 140.196 165.481 144.911 166.958 149.395C162.174 150.454 157.009 151.306 151.566 151.939C155.082 146.534 158.382 140.995 161.417 135.322ZM142.61 152.768C132.616 153.46 122.559 153.452 112.561 152.824C106.88 144.778 101.823 136.317 97.4573 127.532C101.802 118.765 106.822 110.32 112.476 102.287C122.481 101.554 132.548 101.552 142.553 102.291C148.159 110.324 153.171 118.747 157.616 127.435C153.224 136.197 148.177 144.659 142.61 152.768ZM165.067 64.0663C175.353 69.819 170.775 90.2499 168.527 99.1343C161.682 97.6025 154.248 96.4629 146.466 95.7545C141.931 89.4952 137.234 83.8035 132.518 78.8772C139.432 72.4142 154.88 58.3699 165.067 64.0663Z" fill="#53C1DE"/>
<path fill-rule="evenodd" clip-rule="evenodd" d="M175.352 100.845C178.464 88.5863 182.375 65.8531 168.587 58.1459C154.864 50.4722 137.006 65.1764 127.576 74.0025C118.174 65.2643 99.8146 50.623 86.039 58.3548C72.3213 66.0542 76.5515 88.4104 79.7319 100.746C66.9357 104.27 45 111.86 45 127.367C45 142.831 66.9129 151.088 79.6334 154.609C76.4412 167.013 72.4228 189.05 86.158 196.732C99.9851 204.463 118.288 190.17 127.805 181.247C137.295 190.125 154.981 204.512 168.707 196.808C182.476 189.08 178.89 166.651 175.709 154.244C188.04 150.715 210 142.638 210 127.367C210 112.009 187.947 104.358 175.352 100.845ZM173.789 147.668C171.701 141.259 168.882 134.443 165.434 127.402C168.725 120.527 171.435 113.798 173.465 107.43C182.697 110.025 202.952 115.957 202.952 127.367C202.952 138.885 183.515 144.873 173.789 147.668ZM165.175 190.893C154.934 196.64 139.722 182.883 132.713 176.345C137.363 171.414 142.009 165.682 146.544 159.317C154.521 158.631 162.057 157.509 168.891 155.977C171.129 164.754 175.461 185.12 165.175 190.893ZM89.6799 190.811C79.4379 185.085 84.1192 165.42 86.4676 156.283C93.2259 157.733 100.707 158.776 108.703 159.404C113.268 165.633 118.049 171.358 122.867 176.371C116.914 181.954 99.9698 196.564 89.6799 190.811ZM52.0482 127.367C52.0482 115.807 72.1814 109.918 81.6247 107.329C83.6898 113.841 86.3982 120.649 89.6668 127.534C86.3559 134.521 83.6087 141.438 81.5247 148.026C72.5203 145.527 52.0482 138.935 52.0482 127.367ZM89.5703 64.2695C99.8542 58.4979 115.811 72.5541 122.637 78.8807C117.844 83.8715 113.107 89.5533 108.582 95.7457C100.822 96.4431 93.3931 97.5629 86.564 99.0633C84.0019 89.1139 79.2976 70.0348 89.5703 64.2695ZM151.586 103.174C156.851 103.818 161.895 104.675 166.631 105.723C165.209 110.142 163.437 114.763 161.35 119.499C158.324 113.933 155.076 108.479 151.586 103.174ZM127.579 83.7645C130.83 87.1793 134.086 90.9926 137.289 95.1297C130.792 94.8316 124.284 94.8305 117.787 95.1253C120.993 91.0266 124.277 87.219 127.579 83.7645ZM93.7107 119.494C91.6581 114.774 89.9019 110.133 88.4677 105.651C93.1755 104.63 98.196 103.795 103.427 103.161C99.9263 108.455 96.684 113.907 93.7107 119.494ZM103.577 152.061C98.1735 151.477 93.0769 150.684 88.3706 149.691C89.8274 145.13 91.6223 140.389 93.7188 135.567C96.733 141.213 100.025 146.718 103.577 152.061ZM127.774 171.453C124.433 167.958 121.101 164.092 117.846 159.934C124.38 160.183 130.927 160.183 137.461 159.901C134.247 164.134 131.003 168.006 127.774 171.453ZM161.417 135.322C163.622 140.196 165.481 144.911 166.958 149.395C162.174 150.454 157.009 151.306 151.566 151.939C155.082 146.534 158.382 140.995 161.417 135.322ZM142.61 152.768C132.616 153.46 122.559 153.452 112.561 152.824C106.88 144.778 101.823 136.317 97.4573 127.532C101.802 118.765 106.822 110.32 112.476 102.287C122.481 101.554 132.548 101.552 142.553 102.291C148.159 110.324 153.171 118.747 157.616 127.435C153.224 136.197 148.177 144.659 142.61 152.768ZM165.067 64.0663C175.353 69.819 170.775 90.2499 168.527 99.1343C161.682 97.6025 154.248 96.4629 146.466 95.7545C141.931 89.4952 137.234 83.8035 132.518 78.8772C139.432 72.4142 154.88 58.3699 165.067 64.0663Z" fill="#53C1DE"/>
</svg>
