<svg width="256" height="256" viewBox="0 0 256 256" fill="none" xmlns="http://www.w3.org/2000/svg">
<path d="M80.5 109C86.8333 83.6667 102.667 71 128 71C166 71 170.75 99.5 189.75 104.25C202.417 107.417 213.5 102.667 223 90C216.667 115.333 200.833 128 175.5 128C137.5 128 132.75 99.5 113.75 94.75C101.083 91.5833 90 96.3333 80.5 109ZM33 166C39.3333 140.667 55.1667 128 80.5 128C118.5 128 123.25 156.5 142.25 161.25C154.917 164.417 166 159.667 175.5 147C169.167 172.333 153.333 185 128 185C90 185 85.25 156.5 66.25 151.75C53.5833 148.583 42.5 153.333 33 166Z" fill="#44A8B3"/>
</svg>
